<svg width="32" height="32" viewBox="0 0 32 32" fill="none" xmlns="http://www.w3.org/2000/svg">
<path d="M28 4H18.6667C17.6387 4 16.7093 4.40133 16 5.04C15.2907 4.40133 14.3613 4 13.3333 4H4.00001C3.26267 4 2.66667 4.59733 2.66667 5.33333V25.3333C2.66667 26.0707 3.26267 26.6667 4.00001 26.6667H11.6773C12.3787 26.6667 13.0667 26.952 13.5627 27.448L15.0573 28.9427C15.0693 28.9547 15.0853 28.9587 15.0973 28.9707C15.212 29.076 15.34 29.1693 15.4893 29.232C15.4907 29.232 15.4907 29.232 15.492 29.232C15.6533 29.2987 15.8253 29.3333 16 29.3333C16.1747 29.3333 16.3467 29.2987 16.508 29.232C16.5093 29.232 16.5093 29.232 16.5107 29.232C16.66 29.1693 16.788 29.076 16.9027 28.9707C16.9147 28.9587 16.9307 28.9547 16.9427 28.9427L18.4373 27.448C18.9333 26.952 19.6213 26.6667 20.3227 26.6667H28C28.7373 26.6667 29.3333 26.0707 29.3333 25.3333V5.33333C29.3333 4.59733 28.7373 4 28 4ZM11.6773 24H5.33334V6.66667H13.3333C14.0693 6.66667 14.6667 7.26533 14.6667 8V24.9187C13.7893 24.328 12.7427 24 11.6773 24ZM26.6667 24H20.3227C19.2573 24 18.2107 24.328 17.3333 24.9187V8C17.3333 7.26533 17.9307 6.66667 18.6667 6.66667H26.6667V24Z" fill="black"/>
</svg>
