<svg width="32" height="32" viewBox="0 0 32 32" fill="none" xmlns="http://www.w3.org/2000/svg">
<path d="M25.3333 9.33333H24V2.66667H8.00001V9.33333H6.66667C4.46134 9.33333 2.66667 11.128 2.66667 13.3333V22.6667C2.66667 24.1373 3.86267 25.3333 5.33334 25.3333H8.00001V29.3333H24V25.3333H26.6667C28.1373 25.3333 29.3333 24.1373 29.3333 22.6667V13.3333C29.3333 11.128 27.5387 9.33333 25.3333 9.33333ZM10.6667 5.33333H21.3333V9.33333H10.6667V5.33333ZM21.3333 26.6667H10.6667V21.3333H21.3333V26.6667ZM26.6667 22.6667H24V21.3333V18.6667H8.00001V21.3333V22.6667H5.33334V13.3333C5.33334 12.5987 5.93201 12 6.66667 12H25.3333C26.0693 12 26.6667 12.5987 26.6667 13.3333V22.6667Z" fill="black"/>
<path d="M18.6667 13.3333H24V16H18.6667V13.3333Z" fill="black"/>
</svg>
