<svg width="32" height="32" viewBox="0 0 32 32" fill="none" xmlns="http://www.w3.org/2000/svg">
<path fill-rule="evenodd" clip-rule="evenodd" d="M27.284 9.29067C27.716 9.92934 28.088 10.616 28.3894 11.3293C28.6934 12.0453 28.9294 12.8027 29.0894 13.5813C29.2507 14.3733 29.3334 15.1867 29.3334 16C29.3334 16.8133 29.2507 17.6267 29.0894 18.416C28.9294 19.1973 28.6934 19.9547 28.3894 20.672C28.088 21.384 27.716 22.0707 27.2827 22.7107C26.8534 23.3453 26.3614 23.9427 25.8187 24.4853C25.276 25.028 24.68 25.52 24.0454 25.9493C23.4 26.3853 22.7134 26.7573 22.004 27.0573C21.2787 27.364 20.52 27.5987 19.7507 27.756C18.964 27.9173 18.1494 28 17.3334 28C16.5174 28 15.704 27.9173 14.916 27.756C14.1467 27.5987 13.388 27.3627 12.6627 27.056C11.956 26.7573 11.2694 26.3853 10.6254 25.9507C9.98935 25.5213 9.39202 25.0293 8.84935 24.4853L10.7347 22.6C11.1587 23.0227 11.6227 23.4067 12.1174 23.74C12.6174 24.0787 13.152 24.368 13.7014 24.6C14.2654 24.8387 14.8534 25.0213 15.452 25.144C16.68 25.396 17.992 25.3947 19.216 25.144C19.8134 25.0213 20.4027 24.8387 20.9667 24.6C21.5187 24.3667 22.0507 24.076 22.552 23.7387C23.044 23.4053 23.5107 23.0213 23.9334 22.5987C24.356 22.1773 24.7387 21.712 25.072 21.2173C25.4094 20.7187 25.6987 20.1867 25.9334 19.632C26.1707 19.0747 26.352 18.4867 26.4774 17.88C26.6027 17.268 26.6667 16.6347 26.6667 16C26.6667 15.3653 26.6027 14.732 26.4774 14.1147C26.352 13.5107 26.1707 12.9227 25.9334 12.3667C25.6987 11.8107 25.4094 11.2773 25.0734 10.7813C24.7387 10.2853 24.356 9.82 23.9334 9.39867C23.5107 8.976 23.044 8.592 22.5507 8.25734C22.0507 7.92134 21.5174 7.63067 20.9667 7.39867C20.4027 7.16 19.812 6.97734 19.216 6.85467C17.9907 6.604 16.6774 6.60267 15.452 6.85467C14.852 6.97734 14.2627 7.16 13.7014 7.39867C13.1507 7.632 12.616 7.92134 12.1147 8.26C11.6214 8.59334 11.156 8.976 10.7334 9.4C10.3107 9.824 9.92669 10.288 9.59335 10.7827C9.25469 11.2827 8.96535 11.8173 8.73335 12.3667C8.49469 12.9307 8.31202 13.5187 8.18935 14.1173C8.06402 14.7307 8.00002 15.364 8.00002 16C8.00002 16.0053 8.00035 16.011 8.00069 16.0167C8.00102 16.0223 8.00135 16.028 8.00135 16.0333H10.6667L6.66669 21.3333L2.66669 16.0333H5.33469C5.33469 16.028 5.33435 16.0223 5.33402 16.0167C5.33369 16.011 5.33335 16.0053 5.33335 16C5.33335 15.184 5.41602 14.3707 5.57735 13.5813C5.73469 12.812 5.97069 12.0533 6.27735 11.328C6.57602 10.6213 6.94802 9.936 7.38269 9.29067C7.81202 8.656 8.30535 8.05734 8.84802 7.51467C9.39069 6.972 9.98935 6.47867 10.6254 6.04934C11.2707 5.61334 11.956 5.24267 12.664 4.94267C13.388 4.63734 14.1454 4.40134 14.9174 4.244C16.4934 3.91867 18.1774 3.92 19.752 4.244C20.52 4.40134 21.2787 4.63734 22.0054 4.944C22.7134 5.244 23.4 5.61467 24.0427 6.04934C24.68 6.48 25.2747 6.97067 25.8187 7.51334C26.3627 8.056 26.8547 8.65334 27.284 9.29067ZM16 17.3333V10.6667H18.6667V14.6667H22.6667V17.3333H16Z" fill="black"/>
</svg>
