<svg width="26" height="28" viewBox="0 0 26 28" fill="none" xmlns="http://www.w3.org/2000/svg">
<path fill-rule="evenodd" clip-rule="evenodd" d="M14.3533 1.23015C15.1182 2.0178 15.5479 3.08609 15.5479 4.2V11.578L25.2 14.378L23.5415 28H8.07088L0.743417 17.948C0.232923 17.2442 -0.0285249 16.3819 0.00247032 15.504C0.0334655 14.6261 0.35504 13.7856 0.913817 13.1219C1.47259 12.4581 2.23497 12.0112 3.07441 11.8551C3.91384 11.6991 4.77985 11.8434 5.5287 12.264L7.39115 13.314V4.2C7.39115 3.08609 7.82083 2.0178 8.58567 1.23015C9.35051 0.442499 10.3879 0 11.4695 0C12.5512 0 13.5885 0.442499 14.3533 1.23015Z" fill="black"/>
</svg>
