<svg width="32" height="32" viewBox="0 0 32 32" fill="none" xmlns="http://www.w3.org/2000/svg">
<path d="M21.3334 2.66667H10.6667C6.25469 2.66667 2.66669 6.25467 2.66669 10.6667V26.6667C2.66669 27.4027 3.26269 28 4.00002 28H21.3334C25.7454 28 29.3334 24.412 29.3334 20V10.6667C29.3334 6.25467 25.7454 2.66667 21.3334 2.66667ZM26.6667 20C26.6667 22.9413 24.2747 25.3333 21.3334 25.3333H5.33335V10.6667C5.33335 7.72534 7.72535 5.33334 10.6667 5.33334H21.3334C24.2747 5.33334 26.6667 7.72534 26.6667 10.6667V20Z" fill="black"/>
<path d="M12.6667 17.3333C13.7713 17.3333 14.6667 16.4379 14.6667 15.3333C14.6667 14.2288 13.7713 13.3333 12.6667 13.3333C11.5621 13.3333 10.6667 14.2288 10.6667 15.3333C10.6667 16.4379 11.5621 17.3333 12.6667 17.3333Z" fill="black"/>
<path d="M19.3333 17.3333C20.4379 17.3333 21.3333 16.4379 21.3333 15.3333C21.3333 14.2288 20.4379 13.3333 19.3333 13.3333C18.2287 13.3333 17.3333 14.2288 17.3333 15.3333C17.3333 16.4379 18.2287 17.3333 19.3333 17.3333Z" fill="black"/>
</svg>
