<svg width="32" height="32" viewBox="0 0 32 32" fill="none" xmlns="http://www.w3.org/2000/svg">
<path d="M23.6093 16.3907C23.088 15.8693 22.2453 15.8693 21.724 16.3907L19.5987 18.516C18.6133 18.2227 16.7747 17.556 15.6093 16.3907C14.444 15.2253 13.7773 13.3867 13.484 12.4013L15.6093 10.276C16.1307 9.75467 16.1307 8.912 15.6093 8.39067L10.276 3.05733C9.75466 2.536 8.912 2.536 8.39066 3.05733L4.77466 6.67333C4.268 7.18 3.98266 7.876 3.99333 8.58667C4.024 10.4853 4.52666 17.08 9.724 22.2773C14.9213 27.4747 21.516 27.976 23.416 28.008C23.4227 28.008 23.4467 28.008 23.4533 28.008C24.1573 28.008 24.8227 27.7307 25.3267 27.2267L28.9427 23.6107C29.464 23.0893 29.464 22.2467 28.9427 21.7253L23.6093 16.3907ZM23.44 25.34C21.776 25.312 16.0827 24.8653 11.6093 20.3907C7.12133 15.9027 6.68666 10.1893 6.66 8.55867L9.33333 5.88533L12.7813 9.33333L11.0573 11.0573C10.7387 11.3747 10.6027 11.8333 10.6947 12.2733C10.7267 12.4267 11.5093 16.0627 13.7227 18.276C15.936 20.4893 19.572 21.272 19.7253 21.304C20.1693 21.3987 20.624 21.2613 20.9413 20.9427L22.6667 19.2187L26.1147 22.6667L23.44 25.34Z" fill="black"/>
</svg>
