<svg width="32" height="32" viewBox="0 0 32 32" fill="none" xmlns="http://www.w3.org/2000/svg">
<path fill-rule="evenodd" clip-rule="evenodd" d="M13.3333 24C7.44229 24 2.66666 19.2244 2.66666 13.3333C2.66666 7.4423 7.44229 2.66667 13.3333 2.66667C19.2244 2.66667 24 7.4423 24 13.3333C24 15.7983 23.1639 18.068 21.7598 19.8742L28.9428 27.0572L27.0572 28.9428L19.8742 21.7598C18.0679 23.1639 15.7983 24 13.3333 24ZM21.3333 13.3333C21.3333 17.7516 17.7516 21.3333 13.3333 21.3333C8.91505 21.3333 5.33333 17.7516 5.33333 13.3333C5.33333 8.91507 8.91505 5.33334 13.3333 5.33334C17.7516 5.33334 21.3333 8.91507 21.3333 13.3333Z" fill="black"/>
</svg>
