<svg width="32" height="32" viewBox="0 0 32 32" fill="none" xmlns="http://www.w3.org/2000/svg">
<path d="M6.67066 26.6667C6.67066 28.1373 7.86666 29.3333 9.33733 29.3333H22.6707C24.1413 29.3333 25.3373 28.1373 25.3373 26.6667V10.6667H28.004V8.00001H24.004H22.6707V5.33334C22.6707 3.86267 21.4747 2.66667 20.004 2.66667H12.004C10.5333 2.66667 9.33733 3.86267 9.33733 5.33334V8.00001H8.004H4.004V10.6667H6.67066V26.6667ZM12.004 5.33334H20.004V8.00001H12.004V5.33334ZM10.6707 10.6667H21.3373H22.6707L22.672 26.6667H9.33733V10.6667H10.6707Z" fill="black"/>
<path d="M12.004 13.3333H14.6707V24H12.004V13.3333ZM17.3373 13.3333H20.004V24H17.3373V13.3333Z" fill="black"/>
</svg>
