<svg width="49" height="72" viewBox="0 0 49 72" fill="none" xmlns="http://www.w3.org/2000/svg">
    <path
        d="M7.84375 32H11.5586L12.8125 27.8984H18.7773L20.0312 32H23.7578L17.875 15.0898H13.7148L7.84375 32ZM15.6953 18.4648H15.9062L17.9688 25.25H13.6211L15.6953 18.4648ZM26.3289 32H33.9227C37.532 32 39.7703 30.1367 39.7703 27.1719V27.1484C39.7703 24.9805 38.1414 23.3047 35.9031 23.1289V22.918C37.6375 22.6602 38.9617 21.1016 38.9617 19.3203V19.2969C38.9617 16.6953 37.0047 15.0898 33.7234 15.0898H26.3289V32ZM32.8211 17.7148C34.5086 17.7148 35.4813 18.5352 35.4813 19.9062V19.9297C35.4813 21.3242 34.4383 22.1211 32.5281 22.1211H29.868V17.7148H32.8211ZM32.9383 24.4531C35.0242 24.4531 36.1609 25.2969 36.1609 26.8672V26.8906C36.1609 28.4961 35.0594 29.3633 33.0203 29.3633H29.868V24.4531H32.9383Z"
        fill="#F8F8F8" />
    <path
        d="M13.7266 53H17.2656V46.6836L23.1602 36.0898H19.3281L15.6133 43.2031H15.4023L11.6758 36.0898H7.84375L13.7266 46.6836V53ZM26.2742 53H39.3289V50.082H30.6102V49.8711L39.0945 38.3867V36.0898H26.4734V39.0078H34.782V39.2188L26.2742 50.6914V53Z"
        fill="#F8F8F8" />
    <path
        d="M45.8834 7.90692C45.0248 7.90692 44.3261 7.20825 44.3261 6.34958C44.3261 5.49092 45.0248 4.79225 45.8834 4.79225C47.2066 4.79225 48.2793 3.71952 48.2793 2.39612C48.2793 1.07273 47.2066 0 45.8834 0H6.34934C2.84824 0 0 2.84825 0 6.34934V57.7436C0 59.0667 1.07273 60.1395 2.39612 60.1395H7.90692V69.6037C7.90692 70.4874 8.39347 71.2992 9.17237 71.7162C9.95177 72.1339 10.8972 72.0874 11.632 71.5974L16.233 68.53L20.834 71.5974C21.2347 71.8648 21.6982 71.9998 22.1632 71.9998C22.5506 71.9998 22.9394 71.906 23.2936 71.7162C24.0725 71.2992 24.5591 70.4874 24.5591 69.6037V60.1395H45.8834C47.2066 60.1395 48.2793 59.0667 48.2793 57.7436V10.3028C48.2793 8.97965 47.2066 7.90692 45.8834 7.90692ZM6.34934 4.79201H39.7273C39.601 5.29067 39.5341 5.81213 39.5341 6.34934C39.5341 6.88655 39.601 7.40801 39.7273 7.90668H6.34934C5.49067 7.90668 4.79201 7.20801 4.79201 6.34934C4.79201 5.49067 5.49067 4.79201 6.34934 4.79201ZM19.7671 65.1269L17.562 63.657C17.1595 63.3887 16.6963 63.2546 16.233 63.2546C15.7697 63.2546 15.3064 63.3887 14.904 63.657L12.6989 65.1269V60.1397H19.7671V65.1269ZM43.4873 55.3477H4.79201V12.505C5.29067 12.631 5.81213 12.6989 6.34934 12.6989H43.4873V55.3477Z"
        fill="#F8F8F8" />
</svg>